<mxfile host="app.diagrams.net" modified="2023-02-18T13:21:52.141Z" agent="5.0 (X11; Linux x86_64) AppleWebKit/537.36 (KHTML, like Gecko) Chrome/109.0.0.0 Safari/537.36" etag="MG605UUdHN3hHY-QXJeh" version="20.8.20" type="github">
  <diagram name="Page-1" id="SVbKECjQl2XM67rzGYeP">
    <mxGraphModel dx="778" dy="463" grid="1" gridSize="10" guides="1" tooltips="1" connect="1" arrows="1" fold="1" page="1" pageScale="1" pageWidth="827" pageHeight="1169" math="0" shadow="0">
      <root>
        <mxCell id="0" />
        <mxCell id="1" parent="0" />
        <mxCell id="pBAa3s3Ywd2KK1XXBsn_-1" value="staffs" style="swimlane;childLayout=stackLayout;horizontal=1;startSize=30;horizontalStack=0;rounded=1;fontSize=14;fontStyle=0;strokeWidth=2;resizeParent=0;resizeLast=1;shadow=0;dashed=0;align=center;" vertex="1" parent="1">
          <mxGeometry x="50" y="230" width="160" height="210" as="geometry" />
        </mxCell>
        <mxCell id="pBAa3s3Ywd2KK1XXBsn_-2" value="staff_id (int)&#xa;position (varchar)&#xa;first_name (varchar)&#xa;other_names (varchar)&#xa;phone_number (varchar)&#xa;home_address (text)&#xa;country (varchar)&#xa;state (varchar)&#xa;city (varchar)&#xa;date_of_birth (date)&#xa;date_of_apointment (date)&#xa;salary (int)&#xa;guarantor (varchar)" style="align=left;strokeColor=none;fillColor=none;spacingLeft=4;fontSize=12;verticalAlign=top;resizable=0;rotatable=0;part=1;" vertex="1" parent="pBAa3s3Ywd2KK1XXBsn_-1">
          <mxGeometry y="30" width="160" height="180" as="geometry" />
        </mxCell>
        <mxCell id="pBAa3s3Ywd2KK1XXBsn_-4" style="edgeStyle=orthogonalEdgeStyle;rounded=0;orthogonalLoop=1;jettySize=auto;html=1;exitX=0.5;exitY=1;exitDx=0;exitDy=0;" edge="1" parent="pBAa3s3Ywd2KK1XXBsn_-1" source="pBAa3s3Ywd2KK1XXBsn_-2" target="pBAa3s3Ywd2KK1XXBsn_-2">
          <mxGeometry relative="1" as="geometry" />
        </mxCell>
        <mxCell id="pBAa3s3Ywd2KK1XXBsn_-5" value="stock" style="swimlane;childLayout=stackLayout;horizontal=1;startSize=30;horizontalStack=0;rounded=1;fontSize=14;fontStyle=0;strokeWidth=2;resizeParent=0;resizeLast=1;shadow=0;dashed=0;align=center;" vertex="1" parent="1">
          <mxGeometry x="570" y="250" width="160" height="150" as="geometry" />
        </mxCell>
        <mxCell id="pBAa3s3Ywd2KK1XXBsn_-6" value="stock_id (int)&#xa;name (varchar)&#xa;date (date)&#xa;unit_price (decimal)&#xa;quantity (int)&#xa;category (varchar)" style="align=left;strokeColor=none;fillColor=none;spacingLeft=4;fontSize=12;verticalAlign=top;resizable=0;rotatable=0;part=1;" vertex="1" parent="pBAa3s3Ywd2KK1XXBsn_-5">
          <mxGeometry y="30" width="160" height="120" as="geometry" />
        </mxCell>
        <mxCell id="pBAa3s3Ywd2KK1XXBsn_-10" value="Sales" style="swimlane;childLayout=stackLayout;horizontal=1;startSize=30;horizontalStack=0;rounded=1;fontSize=14;fontStyle=0;strokeWidth=2;resizeParent=0;resizeLast=1;shadow=0;dashed=0;align=center;" vertex="1" parent="1">
          <mxGeometry x="540" y="520" width="160" height="160" as="geometry" />
        </mxCell>
        <mxCell id="pBAa3s3Ywd2KK1XXBsn_-11" value="sales_id (int)&#xa;customer_id (int)&#xa;stock_id (int)&#xa;date (datetime)&#xa;quantity_bought (int)&#xa;amount (decimal)" style="align=left;strokeColor=none;fillColor=none;spacingLeft=4;fontSize=12;verticalAlign=top;resizable=0;rotatable=0;part=1;" vertex="1" parent="pBAa3s3Ywd2KK1XXBsn_-10">
          <mxGeometry y="30" width="160" height="130" as="geometry" />
        </mxCell>
        <mxCell id="pBAa3s3Ywd2KK1XXBsn_-12" value="Customers" style="swimlane;childLayout=stackLayout;horizontal=1;startSize=30;horizontalStack=0;rounded=1;fontSize=14;fontStyle=0;strokeWidth=2;resizeParent=0;resizeLast=1;shadow=0;dashed=0;align=center;" vertex="1" parent="1">
          <mxGeometry x="50" y="490" width="160" height="170" as="geometry" />
        </mxCell>
        <mxCell id="pBAa3s3Ywd2KK1XXBsn_-13" value="customer_id (int)&#xa;name (varchar)&#xa;address (text)&#xa;country (varchar)&#xa;state (varchar)&#xa;city (varchar)&#xa;phone_number (varchar)&#xa;" style="align=left;strokeColor=none;fillColor=none;spacingLeft=4;fontSize=12;verticalAlign=top;resizable=0;rotatable=0;part=1;" vertex="1" parent="pBAa3s3Ywd2KK1XXBsn_-12">
          <mxGeometry y="30" width="160" height="140" as="geometry" />
        </mxCell>
        <mxCell id="pBAa3s3Ywd2KK1XXBsn_-14" value="Repair" style="swimlane;childLayout=stackLayout;horizontal=1;startSize=30;horizontalStack=0;rounded=1;fontSize=14;fontStyle=0;strokeWidth=2;resizeParent=0;resizeLast=1;shadow=0;dashed=0;align=center;arcSize=50;" vertex="1" parent="1">
          <mxGeometry x="334" y="410" width="160" height="160" as="geometry" />
        </mxCell>
        <mxCell id="pBAa3s3Ywd2KK1XXBsn_-15" value="repair_id (int)&#xa;customer_id (int)&#xa;item_name (varchar)&#xa;condition/error (varchar)&#xa;date (date)&#xa;outcome (varchar)&#xa;repair_cost (int)&#xa;delivery (enum)&#xa;" style="align=left;strokeColor=none;fillColor=none;spacingLeft=4;fontSize=12;verticalAlign=top;resizable=0;rotatable=0;part=1;" vertex="1" parent="pBAa3s3Ywd2KK1XXBsn_-14">
          <mxGeometry y="30" width="160" height="100" as="geometry" />
        </mxCell>
        <mxCell id="pBAa3s3Ywd2KK1XXBsn_-23" value="&#xa;&#xa;&#xa;" style="align=left;strokeColor=none;fillColor=none;spacingLeft=4;fontSize=12;verticalAlign=top;resizable=0;rotatable=0;part=1;" vertex="1" parent="pBAa3s3Ywd2KK1XXBsn_-14">
          <mxGeometry y="130" width="160" height="30" as="geometry" />
        </mxCell>
        <mxCell id="pBAa3s3Ywd2KK1XXBsn_-17" value="" style="edgeStyle=entityRelationEdgeStyle;fontSize=12;html=1;endArrow=ERoneToMany;rounded=0;" edge="1" parent="1" source="pBAa3s3Ywd2KK1XXBsn_-13" target="pBAa3s3Ywd2KK1XXBsn_-11">
          <mxGeometry width="100" height="100" relative="1" as="geometry">
            <mxPoint x="350" y="310" as="sourcePoint" />
            <mxPoint x="450" y="210" as="targetPoint" />
          </mxGeometry>
        </mxCell>
        <mxCell id="pBAa3s3Ywd2KK1XXBsn_-20" value="" style="edgeStyle=entityRelationEdgeStyle;fontSize=12;html=1;endArrow=ERoneToMany;rounded=0;exitX=1;exitY=0.154;exitDx=0;exitDy=0;exitPerimeter=0;" edge="1" parent="1" source="pBAa3s3Ywd2KK1XXBsn_-11" target="pBAa3s3Ywd2KK1XXBsn_-6">
          <mxGeometry width="100" height="100" relative="1" as="geometry">
            <mxPoint x="470" y="400" as="sourcePoint" />
            <mxPoint x="450" y="210" as="targetPoint" />
          </mxGeometry>
        </mxCell>
        <mxCell id="pBAa3s3Ywd2KK1XXBsn_-21" value="" style="edgeStyle=entityRelationEdgeStyle;fontSize=12;html=1;endArrow=ERoneToMany;rounded=0;exitX=1;exitY=0.75;exitDx=0;exitDy=0;entryX=1;entryY=0;entryDx=0;entryDy=0;" edge="1" parent="1" source="pBAa3s3Ywd2KK1XXBsn_-2" target="pBAa3s3Ywd2KK1XXBsn_-13">
          <mxGeometry width="100" height="100" relative="1" as="geometry">
            <mxPoint x="350" y="310" as="sourcePoint" />
            <mxPoint x="450" y="210" as="targetPoint" />
          </mxGeometry>
        </mxCell>
        <mxCell id="pBAa3s3Ywd2KK1XXBsn_-22" value="" style="edgeStyle=entityRelationEdgeStyle;fontSize=12;html=1;endArrow=ERoneToMany;rounded=0;entryX=0;entryY=0;entryDx=0;entryDy=0;exitX=1;exitY=0.25;exitDx=0;exitDy=0;" edge="1" parent="1" source="pBAa3s3Ywd2KK1XXBsn_-13" target="pBAa3s3Ywd2KK1XXBsn_-15">
          <mxGeometry width="100" height="100" relative="1" as="geometry">
            <mxPoint x="200" y="350" as="sourcePoint" />
            <mxPoint x="450" y="210" as="targetPoint" />
          </mxGeometry>
        </mxCell>
        <mxCell id="pBAa3s3Ywd2KK1XXBsn_-24" value="category" style="swimlane;childLayout=stackLayout;horizontal=1;startSize=30;horizontalStack=0;rounded=1;fontSize=14;fontStyle=0;strokeWidth=2;resizeParent=0;resizeLast=1;shadow=0;dashed=0;align=center;" vertex="1" parent="1">
          <mxGeometry x="300" y="200" width="160" height="110" as="geometry" />
        </mxCell>
        <mxCell id="pBAa3s3Ywd2KK1XXBsn_-25" value="category_id (int)&#xa;stock_id&#xa;name (varchar)&#xa;date (date)" style="align=left;strokeColor=none;fillColor=none;spacingLeft=4;fontSize=12;verticalAlign=top;resizable=0;rotatable=0;part=1;" vertex="1" parent="pBAa3s3Ywd2KK1XXBsn_-24">
          <mxGeometry y="30" width="160" height="80" as="geometry" />
        </mxCell>
        <mxCell id="pBAa3s3Ywd2KK1XXBsn_-26" value="" style="edgeStyle=entityRelationEdgeStyle;fontSize=12;html=1;endArrow=ERoneToMany;rounded=0;" edge="1" parent="1" source="pBAa3s3Ywd2KK1XXBsn_-25" target="pBAa3s3Ywd2KK1XXBsn_-6">
          <mxGeometry width="100" height="100" relative="1" as="geometry">
            <mxPoint x="460" y="175" as="sourcePoint" />
            <mxPoint x="560" y="75" as="targetPoint" />
          </mxGeometry>
        </mxCell>
        <mxCell id="pBAa3s3Ywd2KK1XXBsn_-27" value="Roles" style="swimlane;childLayout=stackLayout;horizontal=1;startSize=30;horizontalStack=0;rounded=1;fontSize=14;fontStyle=0;strokeWidth=2;resizeParent=0;resizeLast=1;shadow=0;dashed=0;align=center;" vertex="1" parent="1">
          <mxGeometry x="220" y="10" width="160" height="120" as="geometry" />
        </mxCell>
        <mxCell id="pBAa3s3Ywd2KK1XXBsn_-28" value="role_id (int)&#xa;name (string)" style="align=left;strokeColor=none;fillColor=none;spacingLeft=4;fontSize=12;verticalAlign=top;resizable=0;rotatable=0;part=1;" vertex="1" parent="pBAa3s3Ywd2KK1XXBsn_-27">
          <mxGeometry y="30" width="160" height="90" as="geometry" />
        </mxCell>
        <mxCell id="pBAa3s3Ywd2KK1XXBsn_-29" value="" style="edgeStyle=entityRelationEdgeStyle;fontSize=12;html=1;endArrow=ERoneToMany;rounded=0;exitX=1;exitY=0.25;exitDx=0;exitDy=0;entryX=-0.006;entryY=0.378;entryDx=0;entryDy=0;entryPerimeter=0;" edge="1" parent="1" source="pBAa3s3Ywd2KK1XXBsn_-2" target="pBAa3s3Ywd2KK1XXBsn_-28">
          <mxGeometry width="100" height="100" relative="1" as="geometry">
            <mxPoint x="210" y="290" as="sourcePoint" />
            <mxPoint x="310" y="190" as="targetPoint" />
          </mxGeometry>
        </mxCell>
      </root>
    </mxGraphModel>
  </diagram>
</mxfile>
